<svg width="150" height="150" viewBox="0 0 150 150" fill="none" xmlns="http://www.w3.org/2000/svg">
<path d="M102.349 102.08H90.8383V84.2316C90.8383 79.9756 90.7616 74.4966 84.8517 74.4966C78.8566 74.4966 77.9394 79.1338 77.9394 83.9218V102.079H66.4289V65.3754H77.4789V70.3913H77.6336C78.7395 68.5192 80.3375 66.979 82.2574 65.935C84.1773 64.8909 86.3473 64.382 88.5362 64.4625C100.203 64.4625 102.354 72.0605 102.354 81.9451L102.349 102.08ZM53.4413 60.3583C52.1202 60.3586 50.8287 59.9709 49.7301 59.2444C48.6315 58.5178 47.7752 57.485 47.2694 56.2766C46.7636 55.0682 46.6311 53.7384 46.8886 52.4553C47.1461 51.1723 47.7821 49.9937 48.7161 49.0686C49.6501 48.1435 50.8402 47.5134 52.1358 47.2579C53.4315 47.0025 54.7746 47.1332 55.9952 47.6336C57.2159 48.134 58.2592 48.9815 58.9934 50.069C59.7276 51.1565 60.1196 52.4352 60.1198 53.7433C60.12 54.6118 59.9473 55.4719 59.6118 56.2744C59.2762 57.0769 58.7844 57.8061 58.1642 58.4203C57.5441 59.0346 56.8078 59.5219 55.9974 59.8544C55.1871 60.187 54.3185 60.3582 53.4413 60.3583ZM59.1965 102.08H47.6741V65.3754H59.1965V102.08ZM108.087 36.5468H41.8902C40.3877 36.53 38.9399 37.1045 37.865 38.1441C36.7901 39.1837 36.1761 40.6033 36.1577 42.091V107.908C36.1754 109.396 36.7891 110.817 37.8639 111.858C38.9388 112.898 40.3869 113.474 41.8902 113.458H108.087C109.593 113.477 111.046 112.903 112.125 111.862C113.204 110.821 113.821 109.399 113.842 107.908V42.0862C113.821 40.5956 113.203 39.1744 112.124 38.1348C111.044 37.0952 109.593 36.5224 108.087 36.542" fill="#B9FFE8"/>
</svg>
