<svg xmlns="http://www.w3.org/2000/svg" class="w-[10em]" viewBox="0 0 192 27"><title>Rating logos</title><path d="m17.53 17.652 2.655 4.607c-3.903 2.988-9.974 3.35-14.47-.092A12.11 12.11 0 0 1 2.464 6.574C5.648.975 11.608-.263 15.445.645c-.104.225-2.402 4.994-2.402 4.994s-.182.012-.284.014c-1.135.048-1.98.312-2.885.78a6.861 6.861 0 0 0-3.642 5.298 6.69 6.69 0 0 0 .454 3.326c.364.89.88 1.68 1.572 2.346 1.061 1.024 2.324 1.658 3.787 1.868 1.386.2 2.719.002 3.968-.626a8.07 8.07 0 0 0 1.333-.85c.06-.039.112-.088.183-.143Z" fill="#FF492C"/><path d="m17.538 4.076-.645-.635c-.125-.124-.245-.252-.373-.372-.045-.044-.099-.103-.099-.103l.062-.13c.244-.49.627-.849 1.082-1.134a3.005 3.005 0 0 1 1.681-.465c.76.015 1.468.205 2.064.715.44.376.666.853.706 1.423.066.962-.332 1.699-1.122 2.213-.464.302-.965.536-1.467.813-.276.153-.513.287-.784.563-.238.278-.25.54-.25.54l3.597-.005v1.602h-5.551v-.155c-.022-.787.07-1.528.43-2.243.332-.656.848-1.136 1.466-1.506.477-.285.98-.527 1.457-.81.295-.175.503-.432.501-.803 0-.32-.232-.603-.563-.691-.782-.211-1.578.125-1.992.84-.06.105-.122.21-.2.343Zm6.957 11.873-3.031-5.235h-5.998l-3.05 5.29h6.041l2.982 5.209 3.056-5.264Z" fill="#FF492C"/><path d="M112.271 9.65h17.309V3.167L112.271 9.65Z" fill="#FF9D28"/><path d="M129.58 3.167v22.927L137.749.097l-8.169 3.07Z" fill="#68C5ED"/><path d="M129.58 9.658h-6.544l6.544 16.436V9.658Z" fill="#044D80"/><path d="m112.271 9.65 12.445 4.219-1.68-4.219h-10.765Z" fill="#E54747"/><path fill-rule="evenodd" clip-rule="evenodd" d="M191.921 6.729c0-1.412-1.147-2.57-2.544-2.57h-18.751c-1.397 0-2.543 1.158-2.543 2.57v9.302c0 1.411 1.146 2.57 2.543 2.57h1.952c1.397 0 3.528.56 4.764 1.248l6.806 3.818c1.218.688 1.737.2 1.164-1.086l-.788-1.737c-.573-1.285.089-2.334 1.486-2.334h3.385c1.397 0 2.543-1.158 2.543-2.57V6.729" fill="#FD810B"/><path fill-rule="evenodd" clip-rule="evenodd" d="m64.332 19.646-3.234 3.232a.615.615 0 0 1-.869 0l-9.794-9.787a.614.614 0 0 1 0-.869l9.794-9.788c.24-.24.629-.24.869 0l3.234 3.232-6.56 6.556a.613.613 0 0 0 0 .868l6.56 6.556Z" fill="#87EFEF"/><path fill-rule="evenodd" clip-rule="evenodd" d="M64.332 5.666 68 9.332l-2.892 2.89a.613.613 0 0 0 0 .868L68 15.98l-3.67 3.667-6.56-6.556a.614.614 0 0 1 0-.869l6.56-6.556ZM71.669 19.646l-3.234 3.232a.615.615 0 0 1-.869 0L65.6 20.915l3.669-3.666 2.4 2.398ZM69.268 8.065 65.6 4.4l1.966-1.965c.24-.24.629-.24.869 0l3.234 3.232-2.4 2.4Z" fill="#41E3E2"/><path fill-rule="evenodd" clip-rule="evenodd" d="m71.669 5.666 6.56 6.556c.24.24.24.63 0 .869l-6.56 6.556-2.4-2.4 4.16-4.157a.613.613 0 0 0 0-.867l-4.16-4.158 2.4-2.399Z" fill="#19BAB8"/><path fill-rule="evenodd" clip-rule="evenodd" d="m68 9.332 2.892 2.89c.24.24.24.629 0 .869L68 15.98l-2.891-2.89a.614.614 0 0 1 0-.869L68 9.332Z" fill="#19BAB8"/><path fill-rule="evenodd" clip-rule="evenodd" d="m72.937 4.399 1.966-1.965c.24-.24.629-.24.869 0l9.794 9.788c.24.24.24.629 0 .868l-9.794 9.788a.615.615 0 0 1-.87 0l-1.965-1.964 7.829-7.823a.614.614 0 0 0-.001-.868l-7.828-7.824Z" fill="#009C9C"/></svg>