<svg xmlns="http://www.w3.org/2000/svg" aria-hidden="true" class="hidden"><defs><symbol id="lyssna-icon-alert-octagon" viewBox="0 0 24 24"><path stroke="currentColor" stroke-linecap="round" stroke-linejoin="round" d="M12 8v4m0 4zM2 8.52v6.96c0 .24 0 .36.03.48q.03.15.12.29c.06.1.15.19.32.36l4.92 4.92c.17.17.26.26.36.32a1 1 0 0 0 .3.12q.13.04.47.03h6.96c.24 0 .36 0 .48-.03a1 1 0 0 0 .29-.12c.1-.06.19-.15.36-.32l4.92-4.92c.17-.17.26-.26.32-.36a1 1 0 0 0 .12-.3c.03-.1.03-.23.03-.47V8.52c0-.24 0-.36-.03-.48a1 1 0 0 0-.12-.29c-.06-.1-.15-.19-.32-.36l-4.92-4.92a2 2 0 0 0-.36-.32 1 1 0 0 0-.3-.12c-.1-.03-.23-.03-.47-.03H8.52c-.24 0-.36 0-.48.03a1 1 0 0 0-.29.12c-.1.06-.19.15-.36.32L2.47 7.39c-.17.17-.26.26-.32.36a1 1 0 0 0-.12.3q-.04.13-.03.47"/></symbol><symbol id="lyssna-icon-arrow-circle-right" viewBox="0 0 24 24"><path stroke="currentColor" stroke-linecap="round" stroke-linejoin="round" d="m12 16 4-4m0 0-4-4m4 4H8m14 0a10 10 0 1 1-20 0 10 10 0 0 1 20 0"/></symbol><symbol id="lyssna-icon-arrow-circle-up-left" viewBox="0 0 24 24"><path stroke="currentColor" stroke-linecap="round" stroke-linejoin="round" d="M9 15V9m0 0h6M9 9l6 6m7-3a10 10 0 1 1-20 0 10 10 0 0 1 20 0"/></symbol><symbol id="lyssna-icon-arrow-narrow-right" viewBox="0 0 24 24"><path stroke="currentColor" stroke-linecap="round" stroke-linejoin="round" d="M4 12h16m0 0-6-6m6 6-6 6"/></symbol><symbol id="lyssna-icon-calculator" viewBox="0 0 24 24"><path stroke="currentColor" stroke-linecap="round" stroke-linejoin="round" d="m17.5 6.5-11 11m2-7v-4m-2 2h4m3 7h4M7.8 21h8.4c1.68 0 2.52 0 3.16-.33a3 3 0 0 0 1.31-1.3c.33-.65.33-1.49.33-3.17V7.8c0-1.68 0-2.52-.33-3.16a3 3 0 0 0-1.3-1.31C18.71 3 17.87 3 16.2 3H7.8c-1.68 0-2.52 0-3.16.33a3 3 0 0 0-1.31 1.3C3 5.29 3 6.13 3 7.8v8.4c0 1.68 0 2.52.33 3.16a3 3 0 0 0 1.3 1.31c.65.33 1.49.33 3.17.33"/></symbol><symbol id="lyssna-icon-check-circle" viewBox="0 0 24 24"><path stroke="currentColor" stroke-linecap="round" stroke-linejoin="round" d="m7.5 12 3 3 6-6m5.5 3a10 10 0 1 1-20 0 10 10 0 0 1 20 0"/></symbol><symbol id="lyssna-icon-check-square-broken" viewBox="0 0 24 24"><path stroke="currentColor" stroke-linecap="round" stroke-linejoin="round" d="m9 11 3 3L22 4m-6-1H7.8c-1.68 0-2.52 0-3.16.33a3 3 0 0 0-1.31 1.3C3 5.29 3 6.13 3 7.8v8.4c0 1.68 0 2.52.33 3.16a3 3 0 0 0 1.3 1.31c.65.33 1.49.33 3.17.33h8.4c1.68 0 2.52 0 3.16-.33a3 3 0 0 0 1.31-1.3c.33-.65.33-1.49.33-3.17V12"/></symbol><symbol id="lyssna-icon-chevron-down" viewBox="0 0 24 24"><path stroke="currentColor" stroke-linecap="round" stroke-linejoin="round" d="m6 9 6 6 6-6"/></symbol><symbol id="lyssna-icon-cloud-01" viewBox="0 0 24 24"><path stroke="currentColor" stroke-linecap="round" stroke-linejoin="round" d="M6.5 19a4.5 4.5 0 0 1-.42-8.98 6 6 0 0 1 11.84 0A4.5 4.5 0 0 1 17.5 19z"/></symbol><symbol id="lyssna-icon-cursor-click-02" viewBox="0 0 24 24"><path stroke="currentColor" stroke-linecap="round" stroke-linejoin="round" d="M9 3.5V2M5.06 5.06 4 4m1.06 9L4 14.06m9-9L14.06 4M3.5 9H2m6.5-.5 4.11 12.78 2.89-2.9L19.11 22 22 19.11l-3.61-3.61 2.89-2.89z"/></symbol><symbol id="lyssna-icon-file-check-02" viewBox="0 0 24 24"><path stroke="currentColor" stroke-linecap="round" stroke-linejoin="round" d="M20 12.5V6.8c0-1.68 0-2.52-.327-3.162a3 3 0 0 0-1.311-1.311C17.72 2 16.88 2 15.2 2H8.8c-1.68 0-2.52 0-3.162.327a3 3 0 0 0-1.311 1.311C4 4.28 4 5.12 4 6.8v10.4c0 1.68 0 2.52.327 3.162a3 3 0 0 0 1.311 1.311C6.28 22 7.12 22 8.8 22H12m2-11H8m2 4H8m8-8H8m6.5 12 2 2 4.5-4.5"/></symbol><symbol id="lyssna-icon-key-02" viewBox="0 0 24 24"><path stroke="currentColor" stroke-linecap="round" stroke-linejoin="round" d="M15 9zM15 15a6 6 0 1 0-5.95-5.2c.06.44.1.66.07.8a1 1 0 0 1-.12.34c-.06.12-.18.24-.42.48l-5.11 5.11c-.17.17-.26.26-.32.36a1 1 0 0 0-.12.3q-.04.13-.03.47v1.74c0 .56 0 .84.1 1.05a1 1 0 0 0 .45.44c.21.11.49.11 1.05.11h1.74c.24 0 .36 0 .48-.03a1 1 0 0 0 .29-.12c.1-.06.19-.15.36-.32l5.1-5.1c.25-.25.37-.37.49-.43.12-.08.2-.1.34-.12s.36 0 .8.07q.4.05.8.05"/></symbol><symbol id="lyssna-icon-lock-01" viewBox="0 0 24 24"><path stroke="currentColor" stroke-linecap="round" stroke-linejoin="round" d="M17 10V8A5 5 0 0 0 7 8v2m5 4.5v2M8.8 21h6.4c1.68 0 2.52 0 3.16-.33a3 3 0 0 0 1.31-1.3c.33-.65.33-1.49.33-3.17v-1.4c0-1.68 0-2.52-.33-3.16a3 3 0 0 0-1.3-1.31C17.71 10 16.87 10 15.2 10H8.8c-1.68 0-2.52 0-3.16.33a3 3 0 0 0-1.31 1.3C4 12.29 4 13.13 4 14.8v1.4c0 1.68 0 2.52.33 3.16a3 3 0 0 0 1.3 1.31c.65.33 1.49.33 3.17.33"/></symbol><symbol id="lyssna-icon-user-square" viewBox="0 0 24 24"><path stroke="currentColor" stroke-linecap="round" stroke-linejoin="round" d="M4 21.82c.6.18 1.42.18 2.8.18h10.4c1.38 0 2.2 0 2.8-.18m-16 0-.36-.15a3 3 0 0 1-1.31-1.3C2 19.71 2 18.87 2 17.2V6.8c0-1.68 0-2.52.33-3.16a3 3 0 0 1 1.3-1.31C4.29 2 5.13 2 6.8 2h10.4c1.68 0 2.52 0 3.16.33a3 3 0 0 1 1.31 1.3c.33.65.33 1.49.33 3.17v10.4c0 1.68 0 2.52-.33 3.16A3 3 0 0 1 20 21.82m-16 0c0-.81 0-1.24.08-1.6a4 4 0 0 1 3.14-3.14C7.61 17 8.07 17 9 17h6c.93 0 1.4 0 1.78.08a4 4 0 0 1 3.14 3.14c.07.36.08.79.08 1.6M16 9.5a4 4 0 1 1-8 0 4 4 0 0 1 8 0"/></symbol><symbol id="lyssna-icon-users-plus" viewBox="0 0 24 24"><path stroke="currentColor" stroke-linecap="round" stroke-linejoin="round" d="M19 21v-6m-3 3h6m-10-3H8c-1.9 0-2.8 0-3.5.3a4 4 0 0 0-2.2 2.2q-.4.9-.3 3.5M15.5 3.3a4 4 0 0 1 0 7.4m-2-3.7a4 4 0 1 1-8 0 4 4 0 0 1 8 0"/></symbol><symbol id="lyssna-icon-shield-tick" viewBox="0 0 24 24"><path stroke="currentColor" stroke-linecap="round" stroke-linejoin="round" d="m9 11.5 2 2L15.5 9m4.5 3c0 4.9-5.35 8.48-7.3 9.61-.22.13-.33.2-.49.23-.12.03-.3.03-.42 0-.16-.03-.27-.1-.49-.23C9.35 20.48 4 16.91 4 12V7.22c0-.8 0-1.2.13-1.55a2 2 0 0 1 .55-.78c.27-.25.65-.39 1.4-.67l5.36-2c.2-.09.31-.13.42-.14h.28c.11.01.21.05.42.13l5.36 2.01c.75.28 1.13.42 1.4.67a2 2 0 0 1 .55.78c.13.35.13.75.13 1.55z"/></symbol><symbol id="lyssna-icon-star-01" viewBox="0 0 24 24"><path stroke="currentColor" stroke-linecap="round" stroke-linejoin="round" d="M11.28 3.45c.23-.46.35-.7.5-.77a.5.5 0 0 1 .44 0c.15.07.27.3.5.77l2.18 4.43q.09.2.16.26.07.07.15.12c.07.03.14.04.3.06l4.89.72c.51.07.77.1.89.23q.15.18.13.41c-.02.18-.2.36-.58.72l-3.54 3.45q-.15.14-.2.22l-.06.18c0 .08 0 .15.03.3l.84 4.87c.08.52.13.77.05.92a.5.5 0 0 1-.35.26c-.17.03-.4-.1-.86-.33l-4.38-2.3q-.18-.11-.27-.13a1 1 0 0 0-.2 0q-.09.02-.27.13l-4.38 2.3c-.46.24-.69.36-.86.33a.5.5 0 0 1-.35-.26c-.08-.15-.03-.4.05-.92l.84-4.87c.02-.15.04-.22.03-.3l-.06-.18a1 1 0 0 0-.2-.22L3.16 10.4c-.37-.36-.56-.54-.58-.72a.5.5 0 0 1 .13-.4c.12-.13.38-.17.9-.24l4.88-.72c.16-.02.23-.03.3-.06l.15-.12q.06-.06.16-.26z"/></symbol><symbol id="lyssna-icon-custom-logo-facebook" viewBox="0 0 100 100"><path fill="currentColor" d="M92.01 50.26a42.01 42.01 0 1 0-48.57 41.5V62.4H32.77V50.26h10.67V41c0-10.53 6.27-16.35 15.86-16.35 4.6 0 9.4.83 9.4.83V35.8h-5.29c-5.22 0-6.85 3.24-6.85 6.56v7.89h11.66L66.35 62.4h-9.79v29.36a42 42 0 0 0 35.45-41.5"/></symbol><symbol id="lyssna-icon-custom-logo-instagram" viewBox="0 0 100 100"><path fill="currentColor" d="M32.85 8.88c-4.4.2-7.41.9-10.05 1.94a20 20 0 0 0-7.32 4.8 20 20 0 0 0-4.76 7.33C9.7 25.6 9 28.6 8.82 33.01c-.2 4.4-.25 5.82-.23 17.07.03 11.25.08 12.66.29 17.07s.91 7.42 1.94 10.05a20 20 0 0 0 4.8 7.32c2.3 2.3 4.6 3.71 7.34 4.77 2.63 1.01 5.65 1.7 10.05 1.9s5.83.24 17.07.22 12.66-.07 17.08-.28 7.4-.92 10.04-1.95a20 20 0 0 0 7.33-4.79 20 20 0 0 0 4.76-7.34C90.3 74.4 91 71.4 91.19 67c.2-4.42.24-5.83.22-17.08s-.07-12.65-.28-17.07-.91-7.41-1.95-10.05a20 20 0 0 0-4.79-7.32 20 20 0 0 0-7.34-4.76C74.41 9.7 71.4 9 67 8.8s-5.83-.24-17.08-.22-12.65.07-17.07.29m.48 74.86c-4.03-.17-6.23-.84-7.69-1.4a13 13 0 0 1-4.77-3.1 13 13 0 0 1-3.1-4.75c-.57-1.46-1.25-3.65-1.44-7.69-.2-4.36-.25-5.67-.27-16.73s.01-12.36.2-16.73c.18-4.04.85-6.23 1.41-7.7a13 13 0 0 1 3.1-4.76 13 13 0 0 1 4.75-3.1c1.46-.57 3.65-1.25 7.68-1.44 4.37-.21 5.68-.25 16.73-.28 11.06-.02 12.37.02 16.74.21 4.03.18 6.23.85 7.69 1.41a13 13 0 0 1 4.77 3.09 13 13 0 0 1 3.1 4.76c.58 1.45 1.25 3.64 1.44 7.68.21 4.37.26 5.68.28 16.73s-.02 12.37-.21 16.73c-.18 4.04-.85 6.23-1.4 7.7a13 13 0 0 1-3.1 4.76 13 13 0 0 1-4.76 3.1c-1.45.58-3.65 1.26-7.68 1.45-4.37.2-5.68.25-16.73.27s-12.37-.02-16.74-.2M67.1 27.87a4.97 4.97 0 1 0 9.95-.02 4.97 4.97 0 0 0-9.95.02M28.74 50.04a21.26 21.26 0 1 0 42.52-.08 21.26 21.26 0 0 0-42.52.08m7.46-.01a13.81 13.81 0 1 1 27.62-.05 13.81 13.81 0 0 1-27.62.05"/></symbol><symbol id="lyssna-icon-custom-logo-linkedin" viewBox="0 0 100 100"><path fill="currentColor" d="M77.35 77.08H65.84V59.23c0-4.25-.08-9.73-5.99-9.73-6 0-6.91 4.63-6.91 9.42v18.16H41.43v-36.7h11.05v5.01h.15a12.1 12.1 0 0 1 10.9-5.93c11.67 0 13.82 7.6 13.82 17.48zM28.44 35.36a6.7 6.7 0 0 1-6.17-4.08 6.6 6.6 0 0 1 1.44-7.21 6.7 6.7 0 0 1 11.4 4.67A6.6 6.6 0 0 1 31 34.85q-1.23.5-2.56.5m5.76 41.72H22.67v-36.7H34.2zm48.89-65.53h-66.2a5.7 5.7 0 0 0-4.03 1.6 5.6 5.6 0 0 0-1.7 3.94v65.82c.01 1.49.63 2.9 1.7 3.95a5.7 5.7 0 0 0 4.03 1.6h66.2c1.5.02 2.95-.56 4.03-1.6a5.6 5.6 0 0 0 1.72-3.95V17.09a5.6 5.6 0 0 0-1.72-3.96 5.7 5.7 0 0 0-4.03-1.59"/></symbol><symbol id="lyssna-icon-custom-logo-x" viewBox="0 0 100 100"><path fill="currentColor" d="M74.39 11.63h12.96L59.04 44.2l33.42 44.17H66.2L45.74 61.6 22.2 88.37H9.24L39.6 53.58 7.54 11.63h26.94l18.59 24.56zm-4.6 68.9h7.15L30.56 18.96H22.7z"/></symbol><symbol id="lyssna-icon-custom-logo-youtube" viewBox="0 0 100 100"><path fill="currentColor" fill-rule="evenodd" d="M85.58 19.94c3.92 1.05 7 4.14 8.05 8.07 1.9 7.13 1.9 21.99 1.9 21.99s0 14.86-1.9 21.99a11.4 11.4 0 0 1-8.05 8.07C78.48 81.97 50 81.97 50 81.97s-28.48 0-35.58-1.9c-3.92-1.06-7-4.15-8.05-8.08C4.47 64.86 4.47 50 4.47 50s0-14.86 1.9-21.99a11.4 11.4 0 0 1 8.05-8.07C21.52 18.03 50 18.03 50 18.03s28.48 0 35.58 1.9M64.5 50l-23.8 13.5v-27z" clip-rule="evenodd"/></symbol></defs></svg>