<svg width="150" height="150" viewBox="0 0 150 150" fill="none" xmlns="http://www.w3.org/2000/svg"><path d="M57.8491 33.8773C53.4428 34.0852 50.4338 34.7883 47.8033 35.822C45.0808 36.883 42.7733 38.3068 40.4774 40.6109C38.1815 42.9151 36.7677 45.2243 35.7141 47.9509C34.6946 50.5872 34.0038 53.5987 33.8092 58.0075C33.6145 62.4163 33.5715 63.8334 33.593 75.0794C33.6145 86.3253 33.6642 87.735 33.8779 92.1529C34.0883 96.5584 34.789 99.5666 35.8226 102.198C36.8853 104.92 38.3074 107.227 40.6124 109.524C42.9174 111.821 45.2249 113.231 47.9581 114.286C50.592 115.304 53.6043 115.998 58.0123 116.191C62.4202 116.384 63.839 116.429 75.0817 116.407C86.3243 116.386 87.7398 116.336 92.1568 116.127C96.5739 115.917 99.5664 115.211 102.199 114.183C104.921 113.118 107.229 111.698 109.524 109.392C111.819 107.086 113.232 104.775 114.285 102.047C115.306 99.4133 115.999 96.401 116.19 91.9964C116.383 87.576 116.429 86.1647 116.407 74.9203C116.386 63.676 116.335 62.2663 116.126 57.8501C115.916 53.4339 115.214 50.4348 114.182 47.8018C113.117 45.0793 111.697 42.7743 109.393 40.4759C107.089 38.1775 104.776 36.7654 102.049 35.7152C99.4131 34.6956 96.4024 34.0007 91.9945 33.8102C87.5866 33.6197 86.1678 33.5708 74.921 33.5924C63.6742 33.6139 62.2662 33.6619 57.8491 33.8773ZM58.3328 108.741C54.2951 108.565 52.1027 107.895 50.6417 107.333C48.7069 106.588 47.3287 105.686 45.8726 104.245C44.4166 102.803 43.522 101.419 42.7667 99.4887C42.1993 98.0277 41.516 95.8378 41.3272 91.8001C41.1218 87.436 41.0787 86.1257 41.0547 75.0694C41.0307 64.0131 41.0729 62.7045 41.2642 58.3388C41.4365 54.3044 42.1115 52.1095 42.6723 50.6493C43.4177 48.712 44.3155 47.3363 45.7608 45.8811C47.2061 44.4259 48.5851 43.5297 50.5174 42.7743C51.9768 42.2045 54.1667 41.527 58.2028 41.3348C62.5701 41.1278 63.8788 41.0864 74.9334 41.0623C85.988 41.0383 87.3 41.0797 91.669 41.2719C95.7034 41.4475 97.8991 42.1159 99.3576 42.6799C101.293 43.4253 102.671 44.3207 104.126 45.7685C105.581 47.2162 106.478 48.5903 107.233 50.5267C107.804 51.982 108.482 54.171 108.672 58.2096C108.88 62.5769 108.927 63.8864 108.947 74.9402C108.967 85.994 108.928 87.3068 108.737 91.6709C108.56 95.7086 107.891 97.9018 107.329 99.3645C106.583 101.298 105.685 102.677 104.239 104.132C102.792 105.586 101.415 106.482 99.4819 107.238C98.0242 107.807 95.8318 108.486 91.799 108.678C87.4317 108.884 86.123 108.927 75.0643 108.951C64.0055 108.975 62.701 108.93 58.3336 108.741M92.0931 52.8665C92.0947 53.8495 92.3878 54.8099 92.9353 55.6262C93.4828 56.4426 94.2601 57.0782 95.1689 57.4528C96.0776 57.8274 97.0771 57.924 98.0408 57.7305C99.0045 57.537 99.8892 57.0621 100.583 56.3658C101.277 55.6695 101.748 54.783 101.938 53.8186C102.128 52.8542 102.028 51.8551 101.65 50.9477C101.272 50.0403 100.634 49.2654 99.8154 48.7209C98.997 48.1764 98.0356 47.8868 97.0526 47.8888C95.7349 47.8914 94.4722 48.4173 93.5422 49.3507C92.6121 50.2842 92.0909 51.5488 92.0931 52.8665ZM53.7368 75.0413C53.76 86.7858 63.2982 96.285 75.0402 96.2627C86.7823 96.2403 96.2881 86.703 96.2658 74.9584C96.2434 63.2139 86.7028 53.7122 74.9591 53.7354C63.2153 53.7586 53.7145 63.2983 53.7368 75.0413ZM61.1961 75.0264C61.1907 72.2961 61.995 69.6256 63.5073 67.3524C65.0197 65.0793 67.1721 63.3057 69.6925 62.2559C72.2129 61.2061 74.9879 60.9272 77.6668 61.4546C80.3456 61.9819 82.8079 63.2918 84.7423 65.2185C86.6767 67.1453 87.9963 69.6024 88.5343 72.2791C89.0722 74.9559 88.8044 77.732 87.7645 80.2565C86.7247 82.781 84.9596 84.9405 82.6925 86.4618C80.4254 87.9831 77.7581 88.798 75.0278 88.8035C73.2149 88.8073 71.4191 88.4539 69.7428 87.7636C68.0664 87.0732 66.5426 86.0594 65.2581 84.7801C63.9737 83.5007 62.9538 81.9808 62.2569 80.3073C61.5599 78.6337 61.1994 76.8392 61.1961 75.0264Z" fill="#B9FFE8"/>
</svg>
