<svg width="150" height="150" viewBox="0 0 150 150" fill="none" xmlns="http://www.w3.org/2000/svg">
<path fill-rule="evenodd" clip-rule="evenodd" d="M110.581 44.9372C114.5 45.9877 117.585 49.0827 118.632 53.0132C120.536 60.1369 120.536 75 120.536 75C120.536 75 120.536 89.863 118.632 96.9873C117.585 100.917 114.5 104.012 110.581 105.063C103.479 106.972 75 106.972 75 106.972C75 106.972 46.5212 106.972 39.419 105.063C35.5007 104.012 32.4146 100.917 31.3674 96.9873C29.4644 89.863 29.4644 75 29.4644 75C29.4644 75 29.4644 60.1369 31.3674 53.0132C32.4146 49.0827 35.5007 45.9877 39.419 44.9372C46.5212 43.0282 75 43.0282 75 43.0282C75 43.0282 103.479 43.0282 110.581 44.9372ZM89.4886 75.0006L65.6859 88.4946V61.5054L89.4886 75.0006Z" fill="#B9FFE8"/>
</svg>
