<svg width="624" height="173" fill="none" xmlns="http://www.w3.org/2000/svg"><path fill-rule="evenodd" clip-rule="evenodd" d="M599.723 7.252c3.524-.286 6.509.921 9.367 3.844 2.665 2.732 4.539 9.847 5.047 15.278.983 9.244.92 17.122-.222 24.808l-.222 1.398c-.317 1.97-.603 3.812-.666 5.781-.064 2.22-.557 4.685-.995 6.882l-.023.106-.445 2.16-.187.944c-1.018 5.102-2.062 10.327-3.527 15.383-1.174 4.066-2.252 8.545-3.429 14.104-.17.877-.464 1.73-.753 2.558l-.104.3a22.812 22.812 0 0 0-.666 2.065l-.254.762c-.7 2.033-2.731 8.164-2.16 10.8.635 2.923 8 13.341 13.811 18.042.92.731 2.002 1.811 2.224 3.399.127.921-.254 1.842-1.018 2.351-.286.19-.603.317-.888.381-.889.222-1.84-.159-2.795-1.112-3.602-3.572-9.889-11.161-13.015-14.934l-.127-.154-.15-.182c-.741-.914-1.225-1.511-1.375-1.66a.704.704 0 0 0-.603-.191l-.026.009a.52.52 0 0 0-.291.182c-.127.159-.254.317-.381.508-3.27 4.765-7.81 8.64-13.843 11.848-1.047.54-2.097.953-3.175 1.175-4.888 1.08-9.557-1.27-14.033-3.557l-1.269-.635c-3.749-1.875-6.509-5.337-8.257-10.324-.086-.204-.254-.194-.306-.191h-.011c-.064 0-.127.064-.159.127l-.666 1.366c-1.11 2.287-2.192 4.447-3.492 6.512-2.097 3.335-5.113 5.654-8.222 6.321-2.763.572-6.763.826-10.319-1.27-1.278-.749-2.526-1.523-3.818-2.32l-.566-.349-.285-.19a1.525 1.525 0 0 0-1.047-.191 1.236 1.236 0 0 0-.856.572l-.318.477-.031.047c-.912 1.383-1.861 2.824-3.461 3.955-1.082.762-2.446 1.334-3.971 1.652-4.793 1.048-11.017-.35-13.618-5.051-3.175-5.718-5.526-11.118-7.271-16.486-2.889-8.989-3.08-18.01-2.889-25.665.063-2.317.063-4.602.063-6.887v-.006c0-3.335 0-6.766.191-10.165.222-3.716.793-7.433 1.364-11.054l.253-1.683.067-.392c.239-1.462.787-4.808 1.364-6.85.222-.731.793-1.303 1.554-1.462.222-.032.444-.063.666-.032l.667.064c.542.064 1.049.35 1.398.794.349.445.476.985.413 1.557-.254 1.81-.635 3.684-1.047 5.495l-.075.341c-.485 2.243-.981 4.534-1.133 6.71a102.882 102.882 0 0 0-.248 4.146c-.024.46-.044.92-.07 1.382l-.011.284c-.124 2.708-.251 5.529-.528 8.26-.285 2.668-.095 9.561.032 14.135.095 2.732.127 4.32.095 4.829-.349 5.05.444 7.94 1.779 12.769l.006.02c1.71 6.187 3.458 12.5 7.931 17.323 2.382 2.573 4.825 3.589 7.302 3.049 1.142-.254 2.287-.825 3.397-1.747 3.683-3.017 4.032-4.447 2.16-8.989l-.101-.239c-1.145-2.785-2.324-5.66-2.757-8.655a66.943 66.943 0 0 0-.383-2.288l-.061-.348c-.349-1.938-.701-3.971-.764-6.067-.118-3.893-.557-7.871-.981-11.745l-.066-.612-.164-1.552c-.208-1.917-.416-3.86-.566-5.785-.158-2.128-.095-4.415.191-6.988.248-2.288.375-4.606.499-6.866l.008-.186.009-.183c.124-2.613.254-5.342.626-7.98.588-4.172 1.776-8.313 2.921-12.307l.095-.336c.145-.494.289-.995.43-1.497l.427-1.489c.972-3.443 2.373-5.56 3.962-7.962l.073-.106c.348-.508.697-1.048 1.046-1.588 1.238-1.906 2.763-2.478 4.381-2.954a.589.589 0 0 1 .222-.064 3.074 3.074 0 0 1 2.699.667c2.732 2.415 3.525 5.686 4.191 9.117 1.43 7.528 1.811 15.564 1.142 26.11-.058.937-.144 1.848-.231 2.78l-.023.238c-.254 2.446-.476 4.955-.222 7.464.159 1.43-.159 2.86-.476 4.257-.034.213-.081.426-.124.634-.034.164-.069.324-.098.477-.254 1.335-.603 2.7-.952 4.003l-.003.012c-.729 2.823-1.427 5.519-1.364 8.215.032 2.065-.444 3.875-.92 5.654-.349 1.239-.666 2.382-.793 3.621-.346 3.187-1.257 6.312-2.142 9.343l-.018.059c-.38 1.302-.761 2.637-1.11 3.939-.127.476-.286.985-.444 1.461-.127.318-.222.636-.317.953-.286 1.017-.064 2.065.634 2.859 2.795 3.113 6.382 4.352 10.414 3.494 2.382-.508 5.079-2.351 6.636-4.511 1.525-2.106 2.581-4.564 3.619-6.979l.127-.295.476-1.111a5.542 5.542 0 0 0 .222-3.844l-.349-1.112-.023-.068c-.626-1.981-1.281-4.038-1.405-4.823-.795-4.574-1.493-9.053-1.462-13.754.032-1.874-.285-3.812-.602-5.686l-.055-.336c-.24-1.489-.49-3.052-.548-4.588-.349-7.623.254-14.452 1.903-20.9.955-3.78 1.78-7.624 2.573-11.372.856-4.034 1.779-8.227 2.826-12.293.706-2.711 1.768-5.286 2.806-7.8l.242-.586.603-1.46a6.46 6.46 0 0 1 2.921-3.24c.603-.318 1.174-.54 1.777-.668 1.24-.254 2.477-.159 3.587.286 3.62 1.43 5.843 4.288 6.287 5.876.413 1.525 1.269 6.417 1.621 8.577.381 2.319.127 12.8-.285 17.66-.098 1.208-.765 3.717-1.272 5.56-.092.383-.19.766-.274 1.081-.087.338-.153.599-.17.697a883.87 883.87 0 0 1-1.396 9.053l-.381 2.479c-.127.839-.254 1.678-.383 2.508-.191 1.303-.349 2.605-.508 3.907l-.029.227c-.337 2.724-.689 5.534-1.43 8.222-1.206 4.32-2.953 8.545-4.666 12.643l-.574 1.397c-.857 2.097-1.872 4.098-3.049 6.385l-.888 1.715c-.603 1.239-.666 2.637-.158 3.875.92 2.256 2.794 4.575 4.317 6.417 1.938 2.414 4.574 4.447 7.844 6.099 2.284 1.175 4.508 1.492 6.826.984.984-.19 1.999-.571 2.982-1.08 4.987-2.573 9.05-6.511 12.098-11.689.793-1.334.889-2.287.318-3.621-4.794-11.658-8.096-24.205-9.748-37.355-.698-5.622-.857-11.721-.476-18.074l.127-2.16.006-.081c.251-4.612.51-9.348 1.932-13.895.412-1.398.634-2.954.603-4.67-.064-3.938 1.11-7.75 2.284-11.308 1.684-4.955 3.461-9.783 6.985-13.754.859-.952 1.811-1.842 2.572-2.54l.222-.191a3.59 3.59 0 0 1 1.621-.826l.066-.014c.13-.027.242-.05.378-.05Zm-3.239 99.645c.127-.381.254-.762.381-1.112.73-2.001 1.332-3.684 1.811-5.463 1.65-5.686 3.397-11.817 5.015-18.138l.318-1.27c1.779-6.83 3.587-13.881 3.746-21.092 0-.862.268-2.578.464-3.824l.075-.496.069-.39c.035-.182.058-.313.058-.372.159-1.525.349-3.05.539-4.574l.058-.46c.17-1.398.34-2.775.484-4.178.064-.508.119-1.016.173-1.524.055-.508.113-1.017.176-1.525l.018-.155c.438-3.763.891-7.648.141-11.47-.185-.89-.28-1.78-.372-2.642l-.009-.09c-.095-1.049-.222-2.065-.444-3.05a12.876 12.876 0 0 1-.288-1.493c-.159-1.112-.317-2.16-.92-3.145-.793-1.365-1.364-2.89-1.808-4.192a4.908 4.908 0 0 0-3.239-3.082l-1.716-.508a2.06 2.06 0 0 0-.983-.031 1.923 1.923 0 0 0-1.111.666l-.349.445c-1.018 1.207-1.874 2.256-2.413 3.43l-.825 1.748c-1.811 3.811-3.651 7.782-4.225 12.07-.101.827-.231 1.64-.364 2.457-.069.439-.141.879-.207 1.323a88.304 88.304 0 0 0-.73 5.083l-.078.794a900.94 900.94 0 0 0-.842 8.703c-.349 3.748-.698 7.465-1.11 11.213-.352 3.272-.032 6.575.285 9.752l.064.73c.38 4.034.951 8.227 1.745 12.801.983 5.59 2.223 10.514 3.809 14.993.574 1.62 1.087 3.24 1.65 5.013.156.487.314.986.479 1.499.158.508.317 1.016.475 1.556Zm-41.433-51.554c-.285 1.08-.381 2.192-.476 3.336-.017.164-.031.33-.046.498-.075.837-.156 1.715-.366 2.615-1.237 5.368-2.414 11.72-1.748 18.423.266 2.58.502 5.188.736 7.772l.06.646c.041.469.081.94.124 1.413.309 3.5.626 7.1 1.018 10.625.147 1.386.488 2.8.813 4.165l.075.314c.096.413.445.54.698.477a.541.541 0 0 0 .381-.286c.288-.541.574-1.08.828-1.652l.634-1.302.029-.061c.911-1.887 1.854-3.835 2.702-5.784.11-.255.231-.517.349-.78.118-.261.237-.523.349-.777l.098-.218c.793-1.772 1.601-3.573 2.028-5.404.542-2.255 2.54-13.913 2.604-17.502.063-2.667.729-5.365 1.364-7.937l.003-.004.138-.579c.369-1.528.747-3.08.972-4.63 1.11-7.656 2.128-16.55.349-25.412-.254-1.302-.666-2.382-1.237-3.271a3.069 3.069 0 0 0-3.271-1.335c-.729.159-1.366.54-1.811 1.144a9.617 9.617 0 0 0-1.427 2.636c-1.272 3.558-2.129 6.639-2.668 9.72-.38 2.192-2.667 10.832-3.302 13.15Zm-31.622-.19c-1.142 2.922-1.301 5.972-1.459 9.18l-.006.091c-.061 1.432-.124 2.893-.248 4.324-.606 4.955-1.24 11.435-.669 18.042.063.89.135 1.789.207 2.687.073.896.145 1.793.208 2.681l.035.492c.337 4.45.683 9.012 1.266 13.485.412 3.335.983 6.892 2.54 10.673.116.29.416.262.494.255l.014-.001a.445.445 0 0 0 .317-.318l.095-.286a544.437 544.437 0 0 0 2.985-11.149c.222-.953.54-2.065.889-3.145.461-1.411.683-2.912.896-4.358l.023-.152.018-.115c.153-1.076.311-2.18.585-3.284.765-3.177 1.145-5.813 1.177-8.322.032-1.335 1.015-8.323 1.11-8.831.73-3.58.793-7.255.857-10.836v-.044c.031-2.155.066-4.34.254-6.527.346-4.15-.367-8.486-1.056-12.701l-.023-.131c-.222-1.335-.444-2.669-.635-4.003-.15-1.102-.547-2.176-.937-3.222l-.078-.208c-.285-.763-1.145-1.208-1.938-1.049-.127.032-.222.064-.317.096l-.285.409c-.796 1.137-2.587 3.7-3.112 4.61-1.139 1.96-1.52 4.11-1.932 6.417l-.006.03c-.286 1.716-.603 3.526-1.269 5.21Z" fill="#B9FFE8"/><path d="M7.314 131.832c.158 3.812 3.016 4.606 5.397 4.606l7.747-.159H82.94c5.206 0 7.27-1.429 8.54-5.4 2.032-6.638 3.683-17.089 3.683-19.662v-.127c0-2.478-1.842-4.606-4.318-4.923a4.98 4.98 0 0 0-4.635 1.969 97.296 97.296 0 0 0-2.286 3.113c-.551.767-1.084 1.545-1.615 2.321-2.287 3.338-4.546 6.638-8.1 8.828-4.7 2.923-10.478 3.431-15.907 3.431-18.541 0-23.4-2.859-23.4-16.009V47.911c-.158-6.321 1.43-9.339 10.605-11.721 4.763-.794 6.35-2.7 6.35-5.241-.159-3.97-3.969-4.765-7.144-4.765l-9.969.159H12.711c-2.381 0-5.397.953-5.397 4.606 0 2.54 1.27 4.288 4.92 5.082 7.113 2.065 8.224 4.892 8.065 11.086v68.388c.159 6.163-.92 9.021-8.064 11.086-3.651.953-4.921 2.7-4.921 5.241Z" fill="#B9FFE8"/><path d="M92.338 160.039c-1.746 1.747-2.38 2.7-2.38 3.494 0 1.112.158 2.224 2.317 2.255h14.414c2.699 0 4.445-.794 6.508-3.811 2.944-4.472 6.171-10.651 10.27-18.497 1.869-3.579 3.921-7.505 6.208-11.775 10.922-20.615 18.034-41.833 24.384-61.496 1.429-4.415 3.175-6.797 6.826-8.862 2.857-1.588 4.127-3.017 4.127-4.764 0-2.383-1.905-3.812-4.603-3.812h-24.384c-3.016 0-4.603 1.588-4.603 3.812 0 2.382 1.428 3.811 6.667 5.558 5.08 1.716 5.239 3.94 3.81 8.704-4.604 16.168-10.446 31.86-17.907 46.122-.952 1.905-2.381 2.382-3.651.159-7.937-14.104-14.414-29.954-19.494-46.758-1.27-4.256-.953-6.797 5.874-9.18 3.651-1.27 4.921-2.54 4.921-4.605 0-2.7-1.429-3.812-5.08-3.812H79.638c-3.968 0-5.556 1.588-5.556 4.288 0 2.065 1.27 3.176 4.287 4.765 3.333 1.715 5.238 3.62 7.143 9.02 3.683 10.61 7.683 21.124 12.097 31.447a399.012 399.012 0 0 0 7.08 15.501 334.05 334.05 0 0 0 3.81 7.592c.409.799.845 1.589 1.281 2.382.848 1.541 1.699 3.086 2.37 4.702.857 2.064 1.365 3.78.508 6.003-.762 2.001-2.286 3.589-3.842 5.051-4.061 3.767-7.943 7.762-11.82 11.752a833.056 833.056 0 0 1-4.658 4.765ZM163.774 112.678c-3.651 3.653-4.286 8.386.159 13.15 6.636 6.957 21.05 12.833 33.876 12.833 18.701 0 31.845-10.609 31.845-25.03 0-14.421-9.017-22.807-30.892-26.46-17.399-3.018-22.637-6.956-22.637-13.785 0-7.116 6.984-12.674 15.843-12.674 10.128 0 17.239 4.605 24.224 13.785 1.588 1.906 2.858 2.7 3.969 2.7 1.111 0 2.381-.953 4.286-2.859 3.175-3.176 4.286-7.115.952-11.244-5.873-7.592-18.382-12.674-30.733-12.674-18.383 0-31.844 12.356-31.844 25.824 0 13.15 7.937 21.06 31.527 24.872 17.112 2.7 22.034 8.068 22.034 15.215 0 7.115-6.35 12.198-16.002 12.198-10.604 0-19.78-5.559-27.082-15.375a88.164 88.164 0 0 1-.355-.486c-1.508-2.068-2.308-3.166-3.931-3.166-1.746 0-3.493 1.588-5.239 3.176ZM236.956 112.678c-3.651 3.653-4.286 8.386.159 13.15 6.635 6.957 21.05 12.833 33.876 12.833 18.702 0 31.844-10.609 31.844-25.03 0-14.421-9.015-22.807-30.891-26.46-17.399-3.018-22.637-6.956-22.637-13.785 0-7.116 6.985-12.674 15.843-12.674 10.128 0 17.24 4.605 24.223 13.785 1.589 1.906 2.858 2.7 3.971 2.7 1.11 0 2.379-.953 4.286-2.859 3.175-3.176 4.285-7.115.951-11.244-5.874-7.592-18.382-12.674-30.733-12.674-18.382 0-31.844 12.356-31.844 25.824 0 13.15 7.937 21.06 31.527 24.872 17.113 2.7 22.035 8.068 22.035 15.215 0 7.115-6.351 12.198-16.003 12.198-10.604 0-19.78-5.559-27.082-15.375a88.164 88.164 0 0 1-.355-.486c-1.508-2.068-2.308-3.166-3.931-3.166-1.746 0-3.493 1.588-5.239 3.176ZM309.661 127.227c-3.492 1.111-4.761 2.699-4.761 4.923 0 3.335 2.699 4.129 5.269 4.161h25.338c2.855 0 6.03-.794 6.03-4.288 0-2.382-1.428-3.971-5.554-5.241-5.399-1.429-6.668-4.256-6.509-10.451V81.613c0-10.482 8.888-19.345 19.653-19.345 10.954 0 17.269 5.877 19.334 19.504l5.716 38.498c.144.93.277 1.816.401 2.658 1.399 9.342 1.999 13.351 9.249 13.351h14.892c2.855 0 4.445-1.111 4.445-3.176 0-3.018-1.269-4.447-5.558-6.353-4.729-2.065-6.157-4.415-7.587-10.768l-9.494-43.104c-3.173-14.739-13.301-22.49-26.129-22.49-8.095 0-16.002 2.828-21.24 8.545-1.586 1.747-3.016 1.43-3.492-.635-1.11-4.13-2.699-5.559-6.826-5.559h-7.302l-6.192-.158c-2.221 0-4.762.793-4.92 4.129 0 2.382 1.11 3.811 4.603 4.923 5.24 1.747 6.35 4.416 6.191 10.292v45.169c.159 5.844-.951 8.544-5.557 10.133Z" fill="#B9FFE8"/><path fill-rule="evenodd" clip-rule="evenodd" d="M433.834 80.342c-18.544 0-33.592 13.056-33.592 29.478 0 16.422 13.018 28.048 31.369 27.984 8.859 0 21.049-3.494 28.351-9.402 2.541-1.906 3.651-1.747 5.241.318 4.285 5.59 9.015 8.29 14.413 8.29 4.762-.159 7.144-2.541 7.144-4.765 0-1.27-.793-2.541-2.541-3.653-4.73-3.049-7.588-7.973-9.018-14.675l-6.665-30.748c-4.764-21.822-12.352-32.812-32.957-32.812-9.653 0-22.509 2.89-29.938 6.385-6.351 3.049-6.985 7.178-2.382 15.151 1.269 2.224 3.334 2.382 5.716.635 8.856-6.86 17.589-10.673 25.494-10.673 10.477 0 18.54 8.132 18.54 18.328 0 1.43-.476 2.065-2.062 2.065-1.101 0-2.806-.282-4.905-.63-3.357-.554-7.718-1.276-12.208-1.276Zm25.653 30.431c1.586 7.496-7.112 15.628-25.336 15.628-10.762 0-19.019-7.656-19.051-17.376 0-10.196 9.05-17.375 21.878-17.375 17.271 0 19.016 2.224 20.602 10.038l1.907 9.085Z" fill="#B9FFE8"/></svg>